<?xml version="1.0" encoding="utf-8"?>
<!-- Generator: Adobe Illustrator 21.0.0, SVG Export Plug-In . SVG Version: 6.00 Build 0)  -->
<svg version="1.2" baseProfile="tiny" id="Calque_1"
	 xmlns="http://www.w3.org/2000/svg" xmlns:xlink="http://www.w3.org/1999/xlink" x="0px" y="0px" viewBox="0 0 140.5 141.2"
	 xml:space="preserve">
<g>
	<path fill="#EBB30C" d="M128.2,28.5c-10.6-16.6-27.3-28.8-46.4-28C55.5,1.6,21.4,23.4,9.5,45.2C1,60.7-4.1,79.6,6.3,98.8
		c10.7,19.7,45,58.3,90.9,34.2c7.3-3.8,13.3-8.4,18.4-13.6c8.7-8.9,14.8-19.5,20.1-31.3C143.9,70.3,139.8,46.7,128.2,28.5z"/>
	<path fill="#333332" d="M68.1,141.1c-10.2,0-20.2-2.8-29.8-8.4c-15.3-8.9-26.8-23.2-32.4-33.7c-8.8-16.3-7.8-34,3.2-54.1
		C21.3,22.5,56,1.1,81.8,0c17.7-0.7,35.2,9.8,46.8,28.2l0,0c12.4,19.5,15.4,43.1,7.6,60.1c-6.4,14-12.6,23.6-20.2,31.4
		c-5.4,5.5-11.5,10-18.5,13.7C87.7,138.6,77.9,141.1,68.1,141.1z M83.6,1c-0.6,0-1.1,0-1.7,0C56.3,2.1,22,23.3,9.9,45.4
		C-0.9,65.2-1.9,82.6,6.8,98.6c11.9,21.9,46,57.2,90.3,34c6.9-3.6,12.9-8.1,18.3-13.5c7.5-7.7,13.7-17.3,20-31.1
		c7.6-16.7,4.7-39.9-7.5-59.2C116.7,11.3,100.3,1,83.6,1z"/>
</g>
</svg>
